/* XPM */
static char *_f3f1a4466234af7fd76050f419a62a6l2pTcJ6voX0YbW8n[] = {
/* columns rows colors chars-per-pixel */
"64 64 173 2 ",
"   c #000107",
".  c #6B6C6C",
"X  c #6D6F70",
"o  c #7E6C79",
"O  c #6E7173",
"+  c #717373",
"@  c #7E7876",
"#  c #7F7B79",
"$  c #B57A0A",
"%  c #B57F15",
"&  c #BD7D12",
"*  c #FF5E00",
"=  c #C37A0E",
"-  c #D37303",
";  c #DB7105",
":  c #D57409",
">  c #DB7409",
",  c #EF6C00",
"<  c #EC6F09",
"1  c #F26500",
"2  c #FE6400",
"3  c #F36A00",
"4  c #FB6801",
"5  c #F2720C",
"6  c #E5771D",
"7  c #D77426",
"8  c #D77430",
"9  c #E37922",
"0  c #F0772D",
"q  c #88667B",
"w  c #827A77",
"e  c #8A7E7A",
"r  c #05AE38",
"t  c #0DAF3C",
"y  c #10AF3F",
"u  c #04B137",
"i  c #539E35",
"p  c #5B9D37",
"a  c #569F38",
"s  c #599E39",
"d  c #77942B",
"f  c #639B34",
"g  c #57A23C",
"h  c #13AF41",
"j  c #1AAF46",
"k  c #0DB343",
"l  c #05B844",
"z  c #14B445",
"x  c #19B146",
"c  c #16B846",
"v  c #12B44C",
"b  c #1CB24C",
"n  c #0EB753",
"m  c #02BB56",
"M  c #09B955",
"N  c #00BE5A",
"B  c #11B651",
"V  c #2DAD47",
"C  c #24AF4C",
"Z  c #2AAC4B",
"A  c #35A943",
"S  c #3AA943",
"D  c #22B14C",
"F  c #2EAE52",
"G  c #36AB54",
"H  c #27B451",
"J  c #2BB253",
"K  c #35B25A",
"L  c #1EBA63",
"P  c #41A640",
"I  c #49A341",
"U  c #4BAB4F",
"Y  c #41A757",
"T  c #45A559",
"R  c #45A95B",
"E  c #51B155",
"W  c #5A9E63",
"Q  c #669A67",
"!  c #6B9869",
"~  c #789577",
"^  c #4EA660",
"/  c #57A061",
"(  c #45B669",
")  c #76A77A",
"_  c #00C25E",
"`  c #A98319",
"'  c #B38015",
"]  c #B3811A",
"[  c #938A21",
"{  c #998820",
"}  c #829227",
"|  c #D7803A",
" . c #E2802D",
".. c #E4853D",
"X. c #998940",
"o. c #BA835E",
"O. c #B69859",
"+. c #83B05C",
"@. c #8A8877",
"#. c #898F75",
"$. c #9D8177",
"%. c #95827C",
"&. c #9E847B",
"*. c #859275",
"=. c #93917D",
"-. c #B88A6B",
";. c #A1867E",
":. c #A1887F",
">. c #D38242",
",. c #DD8943",
"<. c #C59D4D",
"1. c #D6935C",
"2. c #DC9059",
"3. c #D3996C",
"4. c #DA986B",
"5. c #E59260",
"6. c #6BB982",
"7. c #9C8682",
"8. c #9B8885",
"9. c #978C8F",
"0. c #9A8A89",
"q. c #A58682",
"w. c #AC8483",
"e. c #A58B82",
"r. c #A48886",
"t. c #B18285",
"y. c #B58389",
"u. c #BA8089",
"i. c #A6938C",
"p. c #A8948D",
"a. c #AB9A94",
"s. c #8EB99B",
"d. c #90BB9E",
"f. c #B9A684",
"g. c #A0A290",
"h. c #ADA19C",
"j. c #AD9CA8",
"k. c #89BEA5",
"l. c #98BAA2",
"z. c #AFA5A0",
"x. c #B2A7A2",
"c. c #B3AAA7",
"v. c #ACBCB4",
"b. c #B7B3B1",
"n. c #B9B4B3",
"m. c #BBB9B7",
"M. c #BDBDBD",
"N. c #C28A96",
"B. c #CA909D",
"V. c #D3A284",
"C. c #C9B18C",
"Z. c #C6AB95",
"A. c #C4AB97",
"S. c #D2AD93",
"D. c #C4B5A9",
"F. c #CAB9BB",
"G. c #E2A6BA",
"H. c #AFCDB8",
"J. c #A1D1B0",
"K. c #C7C1BC",
"L. c #F1D2AC",
"P. c #FBDAB2",
"I. c #BCBFC2",
"U. c #C3BDC2",
"Y. c #CEBFCA",
"T. c #D1BECC",
"R. c #BDC1C3",
"E. c #BAC2CA",
"W. c #B9C6D2",
"Q. c #C1C3C4",
"!. c #C4C1C8",
"~. c #C5C6D9",
"^. c #D1CEE8",
/* pixels */
"D D D D D D D D D D D D D D D D D D D D D D D D D D D D D D D D D D D D D D D D D D D D D D D D D D D D D D D D D D D D D D D D ",
"D D D D D D D D D D D D D D D D D D D D D D D D D D D D D D D D D D D D D D D D D D D D D D D D D D D D D D D D D D D D D D D D ",
"D D D D D D D D D D D D D D D D D D D D D D D D D D D D D D D D D D D D D D D D D D D D D D D D D D D D D D D D D D D D D D D D ",
"D D D D D D D D D D D D D D D D D D D D D D D D D D D D D D D D D D D D D D D D D D D D D D D D D D D D D D D D D D D D D D D D ",
"D D D D D D D D D D D D D D D D D D D D D D D D D D D D D D D D D D D D D D D D D D D D D D D D D D D D D D D D D D D D D D D D ",
"D D D D D D D D D D D D D D D D D D D D D D D D D D D D D D D D D D D D D D D D D D D D D D D D D D D D D D D D D D D D D D D D ",
"D D D D D D D D D D D D D D D D D D D D D D D D D D D D D D D D D D D D D D D D D D D D D D D D D D D D D D D D D D D D D D D D ",
"D D D D D D D D D D D D D D D D D D D D D D D D D D D D D D D D D D D D D D D D D D D D D D D D D D D D D D D D D D D D D D D D ",
"D D D D D D D D D D D D D D D D D D D D D D D D D D D D D D D D D D D D D D D D D D D D D D D D D D D D D D D D D D D D D D D D ",
"D D D D D D D D D D D D D D D D D D D D D D D D D D D D D D D D D D D D D D D D D D D D D D D D D D D D D D D D D D D D D D D D ",
"D D D D D D D D D D D D D D D D D D D D D D D D D D D D D D D D D D D D D D D D D D D D D D D D D D D D D D D D D D D D D D D D ",
"D D D D D D D D D D D D D D D D D D D D D D D D D D D D D D D D D D D D D D D D D D D D D D D D D D D D D D D D D D D D D D D D ",
"D D D D D D D D D D D D D D D D D D D D D D D D D D D D D D D D D D D D D D D D D D D D D D D D D D D D D D D D D D D D D D D D ",
"D D D D D D D D D D D D D D D D D D D D D D D D D D D D D D B B b D D D D D D D D D D D D D D D D D D D D D D D D D D D D D D D ",
"D D D D D D D D D D D D D D D D D D D D D D D D D D D D D b f ` P M D D D D D D D D D D D D D D D D D D D D D D D D D D D D D D ",
"D D D D D D D D D D D D D D D D D D D D D D D D D D D D D N : 2 , & _ M b D D D D D D D D D D D D D D D D D D D D D D D D D D D ",
"D D D D D D D D D D D D D D D D D D D D D D D D D D D D M & 2 , 3 3 2 * S b D D D D D D D D D D D D D D D D D D D D D D D D D D ",
"D D D D D D D D D D D D D D D D D D D D D D D D D D D b A , 3 , , , 3 3 ] M D D D D D D D D D D D D D D D D D D D D D D D D D D ",
"D D D D D D D D D D D D D D D D D D D D D D D D D D D M 2 , , , , , , , 2 p b b D D D D D D D D D D D D D D D D D D D D D D D D ",
"D D D D D D D D D D D D D D D D D D D D D D D D D D b _ 2 , , , , , , 3 3 : m b D D D D D D D D D D D D D D D D D D D D D D D D ",
"D D D D D D D D D D D D D D D D D D D D D D D D D b s * , , , , , , , 3 , 2 ; Z D D D D D D D D D D D D D D D D D D D D D D D D ",
"D D D D D D D D D D D D D D D D D D D D D D D D b N : 3 , , 3 3 3 4 3 9 | | 0 g v z z x b D D D D D D D D D D D D D D D D D D D ",
"D D D D D D D D D D D D D D D D D D D D D D D b V , 4 , 3 3 6 7 -.i.9.0.0.0.0.t.W N.g.Y D J c D D D D D D D D D D D D D D D D D ",
"D D D D n b D D D D D D D D D D D D D D D C b H S s 2 4 >.o.e.0.8.&.e.&.e.;.q.;.w.;.:.w.#.=.W z b D j D D D D D D D D D D D D D ",
"D D D n 4 p n D D D D D D D D D D D D D D D D D D l 2.9.8.8.&.:.7.:.:.:.:.:.:.:.:.:.:.:.:.;.t.Q R D ( z D D D D D D D D D D D D ",
"D D D B [ * d N n b b D D D D D D D D D D b x x l / r.q.:.:.:.:.:.:.:.:.:.:.:.:.:.:.:.:.:.q.:.q.w.*.i.~ c x D D D D D D D D D D ",
"D D D b g 2 2 2 : a I b D D D D D D D D z G Y =.y.q.q.7.:.:.:.:.:.:.:.:.:.:.&.:.:.:.&.e.:.:.:.:.&.q.w q Y R c D D D D D D D D D ",
"D D D B f 2 , , 3 2 ] m b D D b D b x l *.&.w.;.:.&.q.;.:.:.&.;.:.&.&.&.$.&.:.&.$.&.&.&.:.:.:.:.:.&.+ %.w.u./ y b D D D D D D D ",
"D D D b I 3 3 , , , 2 [ P M v z D T Q u.;.:.:.:.:.:.;.;.;.;.;.;.p.h.b.M.Q.H.!.!.M.b.a.i.-.e ;.;.q.@ # :.&.%.;.B.F x D D D D D D ",
"D D D D B A 2 , , 3 3 4 , ' X.~ #.t.q.:.:.;.;.;.:.&.;.e ;.p.c.b.M.R.M.M.M.M.M.F.F.I.R.R.F.x.e ;.&.O %.&.A.P.e.;.e.F b D D D D D ",
"D D D D D m 2 , , , , , , 4 8 0.;.;.;.&.;.;.;.e.p.a.x.b.F.Q.M.M.M.M.M.M.M.M.M.M.m.M.M.M.R.U.U.x.e + e.:.C.  L.&.q.u.F x D D D D ",
"D D D D D M 2 3 , , , , , 3 7 7.:.e.p.a.z.c.b.m.M.H.U.U.M.M.M.M.M.M.M.M.M.M.M.M.M.M.M.M.M.M.H.Q.# w e.&.S.f.A.&.:.:.q.Z D D D D ",
"D D D D D M 2 , 3 , , , , 3 ,.W.Q.R.R.U.I.U.M.M.M.M.M.M.M.M.M.M.M.M.M.M.M.M.M.M.M.M.M.M.M.M.M.Q.. %.7.:.&.:.&.:.:.:.&.G.z D D D ",
"D D D D D m 2 , , , , , , 3 ,.E.M.M.M.M.M.M.M.M.M.M.M.M.M.M.M.M.M.M.M.M.M.M.M.M.I.I.M.M.M.M.M.I.. %.:.:.:.:.:.:.e.&.t.) c D D D ",
"D D D D b S 2 3 , , , , 3 2 5.E.M.M.M.M.M.M.M.M.M.M.M.M.M.M.M.M.M.M.M.M.F.H.I.D.A.A.m.I.M.I.M.m.. %.:.:.:.:.:.:.&.t./ k D D D D ",
"D D D D B & 3 , , , , 2 : i U v.T.U.U.M.M.M.M.M.M.M.M.M.M.M.M.M.M.M.M.M.I.n. .< , , 9 1.W.I.M.m.. &.:.:.:.:.:.:.t.! z D D D D D ",
"D D D D M ` 4 , , 3 4 > N b b h r ) d.H.I.I.I.I.M.M.M.M.M.M.M.M.M.M.I.I.3.* 1 , , , , * < V.E.Q.. %.w.;.q.:.:.y./ z D D D D D D ",
"D D D b A , 3 , 3 2 > b b D D D D x h L S.W.I.I.M.M.M.M.M.M.M.M.M.M.M.I.A.3., 1 , , , , , 3 1.K.. %.:.e q.t.=.R z D D D D D D D ",
"D D D M 2 1 3 2 ' S M b D D D D D D B = * , 3.A.I.E.M.M.M.M.M.F.M.M.m.M.I.I.E.V., 1 , , , 1 | F.6.q u.@.*.G z b D D D D D D D D ",
"D D D M 2 3 2 { m b D D D D D D D D n ' 3 3 3 , | 4.F.Y.T.T.!.U.U.I.I.I.I.I.I.I.D.,.1 1 ..V.U.U.j.q T Z x x D D D D D D D D D D ",
"D D D B = % } M D D D D D D D D D D B % 3 , 3 2 2 - } l t r K l.s.d.s.v.I.E.I.I.W.~.~.^.k.k.s.H.u c b b D D D D D D D D D D D D ",
"D D D D n B B D D D D D D D D D D D B ] 2 3 2 [ g H b D D D x z h h r J.3.3.3.2.O.( ( 6.h h z h D D D D D D D D D D D D D D D D ",
"D D D D D D D D D D D D D D D D D D v <.5 & N B b b D D D D D D b C B $ 4 1 1 * +.k b j D D D D D D D D D D D D D D D D D D D D ",
"D D D D D D D D D D D D D D D D D D x E U M D D D D D D D D D D C C B = 4 , , 4 m C C b D D D D D D D D D D D D D D D D D D D D ",
"D D D D D D D D D D D D D D D D D D D b b D D D D D D D D D D D D D D N 2 , 2 g b b D D D D D D D D D D D D D D D D D D D D D D ",
"D D D D D D D D D D D D D D D D D D D D D D D D D D D D D D D D D D D M 2 2 > D b C D D D D D D D D D D D D D D D D D D D D D D ",
"D D D D D D D D D D D D D D D D D D D D D D D D D D D D D D D D D D D M * > N D C D D D D D D D D D D D D D D D D D D D D D D D ",
"D D D D D D D D D D D D D D D D D D D D D D D D D D D D D D D D D D D n 3 b b D C D D D D D D D D D D D D D D D D D D D D D D D ",
"D D D D D D D D D D D D D D D D D D D D D D D D D D D D D D D D D D D D n D D D D D D D D D D D D D D D D D D D D D D D D D D D ",
"D D D D D D D D D D D D D D D D D D D D D D D D D D D D D D D D D D D D D D D D D D D D D D D D D D D D D D D D D D D D D D D D ",
"D D D D D D D D D D D D D D D D D D D D D D D D D D D D D D D D D D D D D D D D D D D D D D D D D D D D D D D D D D D D D D D D ",
"D D D D D D D D D D D D D D D D D D D D D D D D D D D D D D D D D D D D D D D D D D D D D D D D D D D D D D D D D D D D D D D D ",
"D D D D D D D D D D D D D D D D D D D D D D D D D D D D D D D D D D D D D D D D D D D D D D D D D D D D D D D D D D D D D D D D ",
"D D D D D D D D D D D D D D D D D D D D D D D D D D D D D D D D D D D D D D D D D D D D D D D D D D D D D D D D D D D D D D D D ",
"D D D D D D D D D D D D D D D D D D D D D D D D D D D D D D D D D D D D D D D D D D D D D D D D D D D D D D D D D D D D D D D D ",
"D D D D D D D D D D D D D D D D D D D D D D D D D D D D D D D D D D D D D D D D D D D D D D D D D D D D D D D D D D D D D D D D ",
"D D D D D D D D D D D D D D D D D D D D D D D D D D D D D D D D D D D D D D D D D D D D D D D D D D D D D D D D D D D D D D D D ",
"D D D D D D D D D D D D D D D D D D D D D D D D D D D D D D D D D D D D D D D D D D D D D D D D D D D D D D D D D D D D D D D D ",
"D D D D D D D D D D D D D D D D D D D D D D D D D D D D D D D D D D D D D D D D D D D D D D D D D D D D D D D D D D D D D D D D ",
"D D D D D D D D D D D D D D D D D D D D D D D D D D D D D D D D D D D D D D D D D D D D D D D D D D D D D D D D D D D D D D D D ",
"D D D D D D D D D D D D D D D D D D D D D D D D D D D D D D D D D D D D D D D D D D D D D D D D D D D D D D D D D D D D D D D D ",
"D D D D D D D D D D D D D D D D D D D D D D D D D D D D D D D D D D D D D D D D D D D D D D D D D D D D D D D D D D D D D D D D ",
"D D D D D D D D D D D D D D D D D D D D D D D D D D D D D D D D D D D D D D D D D D D D D D D D D D D D D D D D D D D D D D D D ",
"D D D D D D D D D D D D D D D D D D D D D D D D D D D D D D D D D D D D D D D D D D D D D D D D D D D D D D D D D D D D D D D D "
};
