/* XPM */
static char *bef1fc4ba5ec47dfa804f9056caed68bLeMwc0rruBi3vKop[] = {
/* columns rows colors chars-per-pixel */
"64 64 119 2 ",
"   c black",
".  c #000F02",
"X  c #001003",
"o  c #18170B",
"O  c #14151B",
"+  c #16181D",
"@  c #1A191E",
"#  c #312024",
"$  c #0D692B",
"%  c #156E2F",
"&  c #167632",
"*  c #BF302F",
"=  c #C22927",
"-  c #C12B2A",
";  c #C33332",
":  c #C53837",
">  c #CE333A",
",  c #C53A3A",
"<  c #D0363D",
"1  c #D23F3E",
"2  c #954E25",
"3  c #95542F",
"4  c #935633",
"5  c #995730",
"6  c #9F5D37",
"7  c #985C39",
"8  c #DF3241",
"9  c #A15B41",
"0  c #A66146",
"q  c #BE7153",
"w  c #B37C5A",
"e  c #D74143",
"r  c #D95E5E",
"t  c #CA5C60",
"y  c #CA6163",
"u  c #CA6668",
"i  c #CA696B",
"p  c #DC6363",
"a  c #DF6969",
"s  c #CB6E71",
"d  c #CB7276",
"f  c #CC767A",
"g  c #CD7A7E",
"h  c #E16C6C",
"j  c #E47272",
"k  c #EB7C7C",
"l  c #19B64C",
"z  c #29AC4B",
"x  c #39A14A",
"c  c #22B14C",
"v  c #23B94F",
"b  c #3BAF50",
"n  c #5F8748",
"m  c #51964B",
"M  c #599B4E",
"N  c #658447",
"B  c #648448",
"V  c #25C253",
"C  c #C08765",
"Z  c #C48B69",
"A  c #D69E79",
"S  c #2E5FA4",
"D  c #3565A8",
"F  c #3967A8",
"G  c #3C6AA9",
"H  c #406EAD",
"J  c #5C88C2",
"K  c #628EC8",
"L  c #6591CB",
"P  c #6F9BD4",
"I  c #74A0D9",
"U  c #7CA8E1",
"Y  c #CD8287",
"T  c #CF868B",
"R  c #F18585",
"E  c #F78F8F",
"W  c #F79090",
"Q  c #F89191",
"!  c #FD9898",
"~  c #F3B891",
"^  c #F8BE96",
"/  c #C2B8B2",
"(  c #C5BEBB",
")  c #FFC49C",
"_  c #FFC89F",
"`  c #FFCAA2",
"'  c #FFD1A8",
"]  c #9FBFDF",
"[  c #83AFE8",
"{  c #85B1EA",
"}  c #8BB7F0",
"|  c #8DB9F2",
" . c #92BEF6",
".. c #9EC1D6",
"X. c #9CCAE5",
"o. c #A5C4E2",
"O. c #ACD3E9",
"+. c #B2DBF4",
"@. c #B9E2FB",
"#. c #B4E9FF",
"$. c #BCF0FF",
"%. c #D8DCE7",
"&. c #D9E3EF",
"*. c #C7E1F4",
"=. c #C9E3F5",
"-. c #CCEAFB",
";. c #D9E5F1",
":. c #D9E9F6",
">. c #D4ECFB",
",. c #DAEEFA",
"<. c #C4F1FF",
"1. c #CBF8FF",
"2. c #DBF2FF",
"3. c #D2FAFF",
"4. c #DCF8FF",
"5. c #EAEFFB",
"6. c #E2FCFF",
"7. c #ECFFFF",
"8. c #F0FFFF",
/* pixels */
"c c l l l l l l l l l l l l l l l l l l l l l l l l l l l l l l l l l l l l l l l l l l l l l l l l l l l l l l l l l l l l l v ",
"l x B n n n n n n n n n n n n n n B n n n n n n n n n n n B n n n n n n n n n n B B n n n n n n n n n n B B n n n n n n n B x l ",
"l B 8 > > > > > > > > > > > > > > > < < > > > > > > > > > > > > > > > > > > : < > > > > > > > > > > : < > > > > > > > > < < N l ",
"l B > k R R R R R R R R R R R R R R R R R R R R R R R R R R R R R R R R R R R R R R R R R R R R R R R R R R R R R R R R k < B l ",
"l n > R Q Q W W E E E E W W W W E Q E Q Q Q E Q W W W W E E E Q Q Q Q E E E E Q Q Q E Q Q Q E Q E E E Q Q E Q Q E E E Q R > B l ",
"l n > R Q W E E E E E E W W W W E E E E E E E E E E E E E E E E E E E E E E E E E E E E E E E E E E E E E E E E E W W W R < B l ",
"l n > R Q W W W E E E E E E E E E E E E E E E E E E E E E E E E E E E E E E E E E E E E E E E E E E E E E E E E E E E W R > n l ",
"l n > R W W W W E E E E E E E E E E E E E E E E E E E E E E E E E E E E E E E E E E E E E E E E E E E E E E E E E E E W R > n l ",
"l n > R Q E E E E E E E E E E E E E E E E E E E E E E E E E E E E E E E E E E E E E E E E E E E E E E E E E E E E E E Q R > B l ",
"l B > R Q E E E E E E E E E E E E E E E E E E E E E E E E E E E E E E E E E E E E E E E E E E E E E E E E E E E E E E E R > n l ",
"l n > R E E E E E E E E E E E E E E E E E E E E E E E E E E E E E E E E E E E E E E E E E E E E E E E E E E E E E E E Q R < n l ",
"l n < R Q E E E E E E E E E E E E E E E E E E E E E E E E E E Q Q E E E E E E E E E E E E E E E E E E E E E E E E E E Q R : n l ",
"l n > R E E E E E E E E E E E E E E E E E E E E E E E E E E Q j j Q E E E E E E E E E E E E E E E E E E E E E E E E W E R > n l ",
"l n > R Q E E E E E E E E E E E E E E E E E E E E E E E E E j , , j E E E E E E E E E E E E E E E E E E E E E W E E E W R > n l ",
"l n > R E E E E E E E E E E E E E E E E E E E E E E E E Q j , i i : j E E E E E E E E E E E E E E E E E E E E E E E E W R > n l ",
"l n > R Q E E E E E E E E E E E E E E E E E E E E E E ! j ; t &.:.y ; j ! E E E E E E E E E E E E E E E E E E E E E E W R > n l ",
"l n > R W W W E E E E E E Q E E E E E E E E E E W W Q j * d ;.4.4.:.d * h W W W E E E E E E E E E E E E E E E E E E E Q R > B l ",
"l n > R W W E E E E E E E E E E E E E E E E E E Q Q h ; d ;.3.2.2.4.:.f ; h E W E E E E E E E E E E E E E E E E E E E Q R > n l ",
"l n : R W E E W E E E E E E E E E E E E E E E E Q a : u ,.4.2.2.2.2.4.,.i : a W E E E E E E E E E E E E E E E E E E E E R > n l ",
"l n > R E E E E E E E E E E E E E E E E E E E ! a ; u &.4.2.2.2.2.2.2.4.&.i ; a ! E E E E E E E E E E E E E E E E E E E R > n l ",
"l n > R E E E E E E E E E E E E E E E E E E E h * g >.4.2.2.2.2.2.2.2.2.4.2.g ; h E W W E E E E E E E E E E E E E E W W R > B l ",
"l n > R E E E E E E E E E E E E E E E E E E h ; g >.4.2.2.2.2.2.2.2.2.2.2.2.>.Y ; p W W E E E E E E E E E E E E E E E W R : n l ",
"l n > R E E E E E E E E E E E E E E E E E h ; s 2.2.2.2.2.,.2.2.2.2.2.2.2.2.4.2.d ; p Q E E W W E E E E E E E E E E E W R > n l ",
"l n < R E E E E E E E E E E E E E E E ! p ; d :.2.2.2.2.2.2.2.,.2.2.2.2.2.2.2.4.:.f ; p ! W W W E E E E E E E E E E E W R < n l ",
"l n > R ! Q Q Q Q Q Q ! E Q Q Q Q Q Q p * Y 2.4.2.2.2.2.2.2.2.2.2.2.2.2.,.2.2.2.3.2.T * p W Q Q Q Q Q Q Q Q Q Q W Q Q Q R > n l ",
"l n < h j j j j j j j j h h j j j j p ; Y 2.2.2.2.2.2.2.2.2.2.2.,.2.2.2.2.2.2.2.2.2.2.T ; r j j j j j j j j j j j j j j h 1 n l ",
"l N 8 e 1 - - - - - - - * * * * = = = g 2.2.2.2.2.2.2.2.2.2.2.2.2.2.2.2.2.,.2.2.2.2.2.2.g = = - - - - - - - - - - - - 1 e 8 N l ",
"c z b o # 5.%.%.%.%.%.%.%.%.%.%.%.%.%.,.2.2.2.2.2.2.2.2.2.2.,.2.2.2.2.2.2.2.2.2.2.2.2.2.2.%.%.%.%.&.%.%.%.&.%.%.&.%.5.# o b z c ",
"c c V X + 8.2.2.4.4.2.2.4.4.2.2.2.4.2.2.2.2.2.2.2.2.2.2.2.2.2.2.2.2.2.2.2.2.2.2.2.2.2.2.2.4.2.2.2.4.2.4.2.4.2.4.2.2.8.+ . V l c ",
"c c V X @ 8.2.2.2.2.2.2.2.2.2.2.2.2.2.2.2.2.2.2.2.2.2.2.2.2.2.2.2.2.,.2.2.2.2.2.2.2.2.2.2.2.2.2.2.2.2.2.2.2.2.2.2.2.8.@ . V c c ",
"c c V X @ 7.2.2.2.2.2.2.2.2.2.2.2.2.2.2.2.2.2.2.2.2.2.2.2.2.2.2.2.2.2.2.2.2.2.2.2.2.2.2.2.2.2.2.2.2.2.2.2.2.2.2.2.2.8.@ . V c c ",
"c c V X @ 8.2.2.2.2.2.2.2.2.2.2.2.2.2.2.2.2.2.2.2.2.,.2.2.,.2.2.2.2.2.2.2.2.2.,.2.2.2.2.2.2.2.2.2.2.2.2.2.2.2.2.2.2.8.@ . V c c ",
"c c V . + 8.2.2.2.2.6.5.6.6.6.5.6.6.6.2.2.2.2.2.4.4.4.4.4.4.4.4.2.3.4.4.4.4.4.4.2.2.2.2.2.6.6.6.6.5.6.6.5.6.2.2.2.2.8.@ . V c c ",
"c c V . @ 8.2.2.2.*.] o.o.o.o.o.o.o.] >.2.2.2.4./ ( ( ( ( ( ( ( ( ( ( ( ( ( ( / 4.2.2.2.>.o.o.o.o.o.o.o.o.] =.2.2.2.8.@ . V c c ",
"c c V . @ 8.2.2.6.] D H F G H G G H D =.2.2.2.6.2 7 4 4 4 4 4 4 4 4 4 4 4 4 7 2 6.2.2.2.*.D G G G G G G H D ] 6.2.,.8.@ . V c c ",
"c c V . @ 8.2.2.6.o.H U [ [ [ [ [ P G =.4.2.2.6.5 C ^ ~ ~ ~ ~ ~ ~ ~ ~ ~ ~ ^ C 5 6.2.2.2.=.G P { [ [ [ [ U G o.6.2.2.8.@ . V c c ",
"c c V . @ 8.2.2.6.o.H [ | | } | | I H *.6.2.2.6.3 Z ` ) ) ) ) ) ) ) ) ) ) ` Z 5 6.2.2.6.=.G I | } } } | [ H o.6.2.2.8.@ . V c c ",
"c c V . @ 8.2.2.6.o.H [ } } } } | I G =.4.2.2.6.3 Z ` ) ) ) ) ) ) ) ) ) ) ` Z 4 6.2.2.4.=.G I | } } } | [ G o.6.2.2.8.@ . V c c ",
"c c V . @ 8.2.,.5.] F [ | } } } | I G *.2.2.2.6.5 Z ` ) ) ) ) ) ) ) ) ) ) ` Z 3 6.2.2.2.=.G I | } } } } [ G o.6.2.2.8.@ . V c c ",
"c c V . @ 8.,.6.6.] H [ } } } } | I G =.2.2.2.6.4 Z ` ) ) ) ) ) ) ) ) ) ) ` Z 3 6.2.2.2.=.G I | } } } | [ H o.5.2.2.8.@ . V c c ",
"c c V . @ 8.2.2.6.o.F [ } } } } | I G =.6.2.2.6.3 Z ` ) ) ) ) ) ) ) ) ) ) ` Z 3 6.2.2.2.=.G I | } } } } [ G o.6.2.2.8.@ . V c c ",
"c c V . @ 8.2.2.6.o.G [ } } } } | I G =.,.,.2.6.3 Z ` ) ) ) ) ) ) ) ) ) ) ` Z 3 6.2.2.2.=.G I | } } } } [ G o.6.2.2.8.@ . V c c ",
"c c V . @ 8.2.,.6.o.H [ } } } } | I G =.6.2.2.6.3 Z ` ) ) ) ) ) ) ) ) ) ) ` Z 3 6.2.2.6.=.G I | } } } } [ G o.6.2.2.8.@ . V c c ",
"c c V . @ 8.2.2.5.o.H [ } } } } | I G *.2.2.2.6.3 Z ` ) ) ) ) ) ) ) ) ) ) ` Z 3 6.2.2.2.=.G I | } } } } [ G o.6.,.2.8.@ . V c c ",
"c c V . @ 8.2.2.6.o.F [ } } } | | I G =.6.2.2.6.3 Z ` ) ) ) ) ) ) ) ) ) ) ` Z 3 6.2.2.2.=.G I  .} } } } [ H o.5.2.2.8.@ . V c c ",
"c c V . @ 8.2.2.6.o.F {  . .|  .X.I G =.2.2.2.6.5 C ` ) ) ) ) ) ) ) ) ) ) ` Z 3 6.2.2.6.=.G I  . .|  . .{ G o.6.2.2.8.@ . V c c ",
"c c V . @ 8.2.2.6.o.G L L L L L L J G =.2.2.2.6.3 Z ) ) ) ) ) ) ) ) ) ) ) ` C 3 6.2.2.2.=.G J L K L K L K H o.6.2.2.8.@ . V c c ",
"c c V . @ 8.2.2.6.] D F D D F F F D S *.6.2.2.6.3 Z _ ) ) ) ) ) ) ) ) ` ` ` Z 3 6.2.2.4.*.S G F G F D G F S ] 6.2.2.8.@ . V c c ",
"c c V . @ 8.2.2.2.6.7.7.7.7.7.7.7.7.7.2.2.2.2.6.3 Z ` ) ) ) ) ) ) ) ` w w ' Z 3 6.2.2.2.2.7.7.7.7.7.7.7.7.7.6.2.2.2.8.@ . V c c ",
"c c V . @ 8.2.2.2.,.2.2.2.2.2.2.2.2.2.2.2.2.2.6.3 Z ` ) ) ) ) ) ) ) _ A A ` Z 3 6.2.2.2.2.2.2.2.,.2.2.2.2.2.,.2.,.2.8.@ . V c c ",
"c c V . @ 8.2.2.2.,.2.2.2.2.2.2.2.2.2.2.2.2.2.6.3 Z ` ) ) ) ) ) ) ) ) _ ` ` Z 3 6.2.2.2.2.2.2.2.2.2.,.2.2.2.2.2.2.2.8.@ . V c c ",
"c c V . @ 8.2.2.2.2.2.2.2.2.2.,.,.2.2.2.2.2.2.6.3 Z ` ) ) ) ) ) ) ) ) ) ) ` Z 3 6.2.2.2.2.2.2.2.2.2.2.2.2.2.2.2.2.2.8.@ . V c c ",
"c c V . @ 8.2.2.2.2.2.2.2.2.2.2.2.2.2.2.2.2.2.6.3 Z ` ) ) ) ) ) ) ) ) ) ) ` Z 3 6.2.2.2.2.2.2.2.2.2.2.2.2.2.2.,.2.2.8.@ . V c c ",
"c c V . @ 8.,.2.2.2.2.,.2.2.,.2.2.2.2.2.2.2.2.6.3 Z ` ) ) ) ) ) ) ) ) ) ) ` Z 3 6.2.2.2.2.2.2.2.2.2.2.2.2.,.2.2.2.2.8.@ . V c c ",
"c c V . @ 8.2.2.2.2.2.2.2.2.2.2.2.2.2.2.2.2.2.6.3 Z ` ) ) ) ) ) ) ) ) ) ) ` Z 3 6.2.2.2.2.2.2.2.2.2.2.2.2.2.2.2.2.2.8.@ . V c c ",
"c c V . @ 8.2.2.2.2.2.2.2.2.2.2.2.2.2.2.2.2.2.6.3 Z ` ) ) ) ) ) ) ) ) ) ) ` Z 3 6.2.2.2.2.2.2.2.,.2.2.2.2.2.2.2.2.2.8.@ . V c c ",
"c c V . @ 8.2.2.2.2.2.2.2.2.6.,.2.2.2.2.2.2.2.6.3 Z ` ) ) ) ) ) ) ) ) ) ) ` Z 3 6.2.2.2.2.2.2.2.2.2.2.2.2.2.2.2.2.2.8.@ . V c c ",
"c c V . @ 6.-.-.-.-.-.-.-.-.-.-.-.-.-.-.-.-.-.3.3 Z ` ) ) ) ) ) ) ) ) ) ) ` Z 3 3.-.>.-.-.-.-.-.-.-.-.-.>.-.-.-.-.-.6.+ . V c c ",
"c c V X O <.+.+.+.+.+.+.+.+.+.+.+.+.+.+.+.+.+.#.5 Z ` ) ) ) ) ) ) ) ) ) ) ` Z 5 #.+.+.+.+.+.+.+.+.+.+.+.+.+.+.+.+.+.<.O X V c c ",
"c c V X @ 1.@.@.@.@.@.@.@.@.@.@.@.@.@.@.@.@.@.$.5 Z ` ` ) ) ) ) ) ) ) ) _ ` Z 5 $.@.@.@.@.@.@.@.@.@.@.@.@.@.@.@.@.@.1.+ X V c c ",
"c c V X O O...................................o.6 C ^ ~ ~ ~ ~ ~ ~ ~ ~ ~ ~ ) C 5 X...................................O.O X V z c ",
"c c V .                                         q 0 9 9 9 9 9 9 9 9 9 9 9 9 0 q                                         . V c c ",
"c c v & % % % % % % % % % % % % % % % % % % % $ M m m m m m m m m m m m m m m M $ % % % % % % % % % % % % % % % % % % % & v c c ",
"c c c v v v v v v v v v v v v v v v v v v v v v l l l l c l l c l l l l l l l l v v v v v v v v v v v v v v v v v v v v v c c c "
};
