/* XPM */
static char *e7f1849db2a54cafe33519c8287e7c7bg07LXVXgDtE05eIS[] = {
/* columns rows colors chars-per-pixel */
"64 64 99 2 ",
"   c #3C341E",
".  c gray13",
"X  c #232323",
"o  c gray14",
"O  c #282828",
"+  c gray17",
"@  c #2C2C2C",
"#  c gray20",
"$  c #343434",
"%  c #373737",
"&  c gray22",
"*  c #3A3A3A",
"=  c #3C3C3C",
"-  c #54441A",
";  c #614F19",
":  c gray25",
">  c #414141",
",  c #444444",
"<  c #494949",
"1  c gray30",
"2  c gray31",
"3  c #505050",
"4  c gray32",
"5  c #535353",
"6  c gray34",
"7  c gray35",
"8  c gray36",
"9  c #5F5F5F",
"0  c #626262",
"q  c #646464",
"w  c #6A6A6A",
"e  c gray42",
"r  c #6D6D6D",
"t  c gray45",
"y  c #747474",
"u  c gray47",
"i  c #7C7C7C",
"p  c #7E7E7E",
"a  c #8F6C12",
"s  c #22B14C",
"d  c #E9B109",
"f  c #FDB301",
"g  c #FFB300",
"h  c #FFB604",
"j  c #F2B809",
"k  c #FBBE08",
"l  c #FFBA0F",
"z  c #FFBE1E",
"x  c #FFC107",
"c  c #FFC516",
"v  c #FFC720",
"b  c #FDC22B",
"n  c #FFC737",
"m  c #FCCE44",
"M  c #FFD249",
"N  c #FFD65A",
"B  c #FBD769",
"V  c #FFDD78",
"C  c #838383",
"Z  c #888888",
"A  c #898989",
"S  c #909090",
"D  c #959595",
"F  c #989898",
"G  c gray63",
"H  c gray64",
"J  c #A4A4A4",
"K  c gray66",
"L  c gray67",
"P  c #ACACAC",
"I  c #B7B7B7",
"U  c gray72",
"Y  c #B9B9B9",
"T  c #BCBBB8",
"R  c #BFBDB9",
"E  c #FFDE8A",
"W  c #FFE193",
"Q  c gray78",
"!  c #C8C8C8",
"~  c #CACACA",
"^  c gray80",
"/  c gray84",
"(  c #D7D7D7",
")  c #DADADA",
"_  c gainsboro",
"`  c gray87",
"'  c #DFDFDF",
"]  c #FFF0C2",
"[  c gray88",
"{  c gray89",
"}  c #E4E4E4",
"|  c #E7E7E7",
" . c gray91",
".. c gray92",
"X. c #EEEEEE",
"o. c #EFEFEF",
"O. c #F1F1F1",
"+. c #F3F3F3",
"@. c gray96",
/* pixels */
"s s s s s s s s s s s s s s s s s s s s s s s s s s s s s s s s s s s s s s s s s s s s s s s s s s s s s s s s s s s s s s s s ",
"s s s s s s s s s s s s s s s s s s s s s s s s s s s s s s s s s s s s s s s s s s s s s s s s s s s s s s s s s s s s s s s s ",
"s s s s s s s s s s s s s s s s s s s s s s s s s s s s s s s s s s s s s s s s s s s s s s s s s s s s s s s s s s s s s s s s ",
"s s s s s s s s s s s s s s s s s s s s s s s s s s s . . . . . . . . . . s s s s s s s s s s s s s s s s s s s s s s s s s s s ",
"s s s s s s s s s s s s s s s s s s s s s s s s s 4 . . . . . . . . . . . . 4 s s s s s s s s s s s s s s s s s s s s s s s s s ",
"s s s s s s s s s s s s s s s s s s s s s s s S . . . . . . . . . . . . . . . . A s s s s s s s s s s s s s s s s s s s s s s s ",
"s s s s s s s s s s s s s s s s s s s s s s s . . . . . . . . . . . . . . . . . . s s s s s s s s s s s s s s s s s s s s s s s ",
"s s s s s s s s s s s s s s s s s s s s s s @ . . . . . . . . . . . . . . . . . . + s s s s s s s s s s s s s s s s s s s s s s ",
"s s s s s s s s s s s s s s s s s s s s s 0 . . . . . . . . . . . . . . . . . . . . 0 s s s s s s s s s s s s s s s s s s s s s ",
"s s s s s s s s s s s s s s s s s s s s s . . . . L ` ( S . . . . . . S ) ` L . . . . s s s s s s s s s s s s s s s s s s s s s ",
"s s s s s s s s s s s s s s s s s s s s s . . . u @.@.@.@.> . . . . > @.@.@.@.u . . . s s s s s s s s s s s s s s s s s s s s s ",
"s s s s s s s s s s s s s s s s s s s s i . . ` @.@.@.@.@.@.8 . . 8 @.@.@.@.@.@.` . . i s s s s s s s s s s s s s s s s s s s s ",
"s s s s s s s s s s s s s s s s s s s s 6 . . @.@.I & I @.@.G . . G @.@.I & Y @.@.. . 8 s s s s s s s s s s s s s s s s s s s s ",
"s s s s s s s s s s s s s s s s s s s s @ . . @.@.& . & @.@.! . . ^ @.@.& . & @.@.. . @ s s s s s s s s s s s s s s s s s s s s ",
"s s s s s s s s s s s s s s s s s s s s . . . @.@.Y & Y @.@.T d f R @.@.Y & Y @.@.. . . s s s s s s s s s s s s s s s s s s s s ",
"s s s s s s s s s s s s s s s s s s s s . . . @.@.@.@.@.@.m x x f f l @.@.@.@.@.@.. . . s s s s s s s s s s s s s s s s s s s s ",
"s s s s s s s s s s s s s s s s s s s s . . . @.@.@.@.@.@.x x x f f f @.@.@.@.@.@.. . . s s s s s s s s s s s s s s s s s s s s ",
"s s s s s s s s s s s s s s s s s s s s . . .  .@.@.@.@.@.@.@.B b @.@.@.@.@.@.@. .. . . s s s s s s s s s s s s s s s s s s s s ",
"s s s s s s s s s s s s s s s s s s s s . . . F @.@.@.@.@.@.@.@.@.@.@.@.@.@.@.@.F . . . s s s s s s s s s s s s s s s s s s s s ",
"s s s s s s s s s s s s s s s s s s s S . . . . S @.@.@.@.@.@.@.@.@.@.@.@.@.@.S . . . . s s s s s s s s s s s s s s s s s s s s ",
"s s s s s s s s s s s s s s s s s s s w . . . . @ @.@.@.@.@.@.@.@.@.@.@.@.@.@.@ . . . . w s s s s s s s s s s s s s s s s s s s ",
"s s s s s s s s s s s s s s s s s s s . . . . . . @.@.@.@.@.@.@.@.@.@.@.@.@.@.. . . . . . s s s s s s s s s s s s s s s s s s s ",
"s s s s s s s s s s s s s s s s s s s . . . . . = @.@.@.@.@.@.@.@.@.@.@.@.@.@.> . . . . . s s s s s s s s s s s s s s s s s s s ",
"s s s s s s s s s s s s s s s s s s s . . . . t } @.@.@.@.@.@.@.@.@.@.@.@.@.@.} t . . . . s s s s s s s s s s s s s s s s s s s ",
"s s s s s s s s s s s s s s s s s s 2 . . . . ( O.@.@.@.@.@.@.@.@.@.@.@.@.@.@.O.) . . . . 2 s s s s s s s s s s s s s s s s s s ",
"s s s s s s s s s s s s s s s s s # . . . . %  .@.@.@.@.@.@.@.@.@.@.@.@.@.@.@.@. .& . . . . # s s s s s s s s s s s s s s s s s ",
"s s s s s s s s s s s s s s s s s . . . . . D O.@.@.@.@.@.@.@.@.@.@.@.@.@.@.@.@.O.D . . . . . s s s s s s s s s s s s s s s s s ",
"s s s s s s s s s s s s s s s s # . . . . C [ @.@.@.@.@.@.@.@.@.@.@.@.@.@.@.@.@.@.[ C . . . . % s s s s s s s s s s s s s s s s ",
"s s s s s s s s s s s s s s s 8 . . . . . ^ [ @.@.@.@.@.@.@.@.@.@.@.@.@.@.@.@.@.@.[ ^ . . . . . 7 s s s s s s s s s s s s s s s ",
"s s s s s s s s s s s s s s s . . . . . . [ } @.@.@.@.@.@.@.@.@.@.@.@.@.@.@.@.@.@.} [ . . . . . . s s s s s s s s s s s s s s s ",
"s s s s s s s s s s s s s s # . . . . . # [  .@.@.@.@.@.@.@.@.@.@.@.@.@.@.@.@.@.@. .' # . . . . . % s s s s s s s s s s s s s s ",
"s s s s s s s s s s s s s . . . . . . . P [ O.@.@.@.@.@.@.@.@.@.@.@.@.@.@.@.@.@.@.O.[ L . . . . . . . s s s s s s s s s s s s s ",
"s s s s s s s s s s s s s . . . , . . O ) [ @.@.@.@.@.@.@.@.@.@.@.@.@.@.@.@.@.@.@.@.[ ) O . . > . . . s s s s s s s s s s s s s ",
"s s s s s s s s s s s p . . . s s . . C [ | @.@.@.@.@.@.@.@.@.@.@.@.@.@.@.@.@.@.@.@. .[ C . . s s . . . C s s s s s s s s s s s ",
"s s s s s s s s s s s o . . @ s 4 . . P [  .@.@.@.@.@.@.@.@.@.@.@.@.@.@.@.@.@.@.@.@...[ P . . 4 s @ . . o s s s s s s s s s s s ",
"s s s s s s s s s s s . . q s s . . . [ [ O.@.@.@.@.@.@.@.@.@.@.@.@.@.@.@.@.@.@.@.@.O.[ [ . . . i s 0 . . s s s s s s s s s s s ",
"s s s s s s s s s s y . . s s < . . . ` [ O.@.@.@.@.@.@.@.@.@.@.@.@.@.@.@.@.@.@.@.@.O.[ [ . . . < s s . . y s s s s s s s s s s ",
"s s s s s s s s s F . . > s s . . . . [ ` @.@.@.@.@.@.@.@.@.@.@.@.@.@.@.@.@.@.@.@.@.+.[ [ . . . . s s > . . F s s s s s s s s s ",
"s s s s s s s s s 2 . . A s s . . . . [ [ @.@.@.@.@.@.@.@.@.@.@.@.@.@.@.@.@.@.@.@.@.+.[ [ . . . . s s A . . 4 s s s s s s s s s ",
"s s s s s s s s s . . w s s s . . . . [ [ @.@.@.@.@.@.@.@.@.@.@.@.@.@.@.@.@.@.@.@.@.+.[ [ . . . . s s s w . . s s s s s s s s s ",
"s s s s s s s s s . . s s s s . . . . [ [ +.@.@.@.@.@.@.@.@.@.@.@.@.@.@.@.@.@.@.@.@.O.[ [ . . . . s s s s . . s s s s s s s s s ",
"s s s s s s s s s . . s s s s . . . . [ [ X.@.@.@.@.@.@.@.@.@.@.@.@.@.@.@.@.@.@.@.@.o.[ [ . . . . s s s s . . s s s s s s s s s ",
"s s s s s s s s s . . s s s s . . . . [ [ ..@.@.@.@.@.@.@.@.@.@.@.@.@.@.@.@.@.@.@.@...[ [ . . . . s s s s . . s s s s s s s s s ",
"s s s s s s s s s s s s s s s . . . . [ [ { @.@.@.@.@.@.@.@.@.@.@.@.@.@.@.@.@.@.@.+.} [ [ . . . . s s s s s s s s s s s s s s s ",
"s s s s s s s s s s s s s s s . . . . [ [ [ +.@.@.@.@.@.@.@.@.@.@.@.@.@.@.@.@.@.@.+.[ [ [ . . . . s s s s s s s s s s s s s s s ",
"s s s s s s s s s s s s s s s . . . . [ [ [ } @.@.@.@.@.@.@.@.@.@.@.@.@.@.@.@.@.@.} [ [ [ . . . . s s s s s s s s s s s s s s s ",
"s s s s s s s s s s s s s s s . . . . [ [ [ [ @.@.@.@.@.@.@.@.@.@.@.@.@.@.@.@.@.@.[ [ [ [ . . . . s s s s s s s s s s s s s s s ",
"s s s s s s s s s s s s s s s e . . . ' [ [ [ X.@.@.@.@.@.@.@.@.@.@.@.@.@.@.@.@.O.[ [ [ ' . . . r s s s s s s s s s s s s s s s ",
"s s s s s s s s s s s s s s s s . . . Y ` [ [ } +.@.@.@.@.@.@.@.@.@.@.@.@.@.+.+.} [ [ [ Y . . . s s s s s s s s s s s s s s s s ",
"s s s s s s s s s s s s s s s s p . . % ` [ [ [ [ +.@.@.@.@.@.@.@.@.@.@.@.@.+.[ [ [ [ ` & . . i s s s s s s s s s s s s s s s s ",
"s s s s s s s s s s s s s s s s s . . . G [ [ [ [ [ O.@.@.@.@.@.@.@.@.@.@.O.{ [ [ [ [ J . . . s s s s s s s s s s s s s s s s s ",
"s s s s s s s s s s s s s s s s s . . . . [ [ [ [ [ [ [ [ X.O.@.@.O...} [ [ [ [ [ [ [ . . . s s s s s s s s s s s s s s s s s s ",
"s s s s s s s s s s s s s s s s s q . . . Q [ [ [ [ [ [ [ [ [ [ [ [ [ [ [ [ [ [ [ [ Q . . . s s s s s s s s s s s s s s s s s s ",
"s s s s s s s s s s s s s s s s s s s . . . 2 ` [ [ [ [ [ [ [ [ [ [ [ [ [ [ [ [ [ 4 . . . s s s s s s s s s s s s s s s s s s s ",
"s s s s s s s s s s s s s s s s s s s . . . . ~ [ [ [ [ [ [ [ [ [ [ [ [ [ [ [ ' Q . . . . s s s s s s s s s s s s s s s s s s s ",
"s s s s s s s s s s s s s s s s s s s s 2 . . . . J ` [ [ [ [ [ [ [ [ [ ` ` J . . . . 2 s s s s s s s s s s s s s s s s s s s s ",
"s s s s s s s s s s s s s s s s s s s s s o X . . . % K / [ [ [ [ [ [ ( L % . . . . . s s s s s s s s s s s s s s s s s s s s s ",
"s s s s s s s s s s s s s s s s s s s s N x x f f - . . . . . . . . . . . .   k x f f z s s s s s s s s s s s s s s s s s s s s ",
"s s s s s s s s s s s s s s s s s s s c x x x f f f a . . . . . . . . . o - j x x f f f f s s s s s s s s s s s s s s s s s s s ",
"s s s s s s s s s s s s s s s s s s c x x x x f f f f s s s s s s s s s s x x x x f f f f h s s s s s s s s s s s s s s s s s s ",
"s s s s s s s s s s s s s s s s s V x x x x x f f f f n s s s s s s s s V x x x x f f f f f n s s s s s s s s s s s s s s s s s ",
"s s s s s s s s s s s s s s s s s s s s s M x l E s s s s s s s s s s s s s s s M f l s s s s s s s s s s s s s s s s s s s s s ",
"s s s s s s s s s s s s s s s s s s s s s s ] s s s s s s s s s s s s s s s s s s W s s s s s s s s s s s s s s s s s s s s s s ",
"s s s s s s s s s s s s s s s s s s s s s s s s s s s s s s s s s s s s s s s s s s s s s s s s s s s s s s s s s s s s s s s s "
};
