/* XPM */
static char *_a351c2c105847f987c095116b728910iw20OBk50dm9zQxP[] = {
/* columns rows colors chars-per-pixel */
"64 64 55 1 ",
"  c #728596",
". c #748798",
"X c #76899A",
"o c #778B9B",
"O c #788B9C",
"+ c #798C9D",
"@ c #7F909F",
"# c #7C8FA0",
"$ c #7D90A1",
"% c #8192A1",
"& c #8393A3",
"* c #8394A2",
"= c #8495A4",
"- c #8696A5",
"; c #8699AB",
": c #8799AB",
"> c #869AAA",
", c #879BAB",
"< c #889AAC",
"1 c #899BAD",
"2 c #889CAC",
"3 c #8A9DAE",
"4 c #90A2B4",
"5 c #98A6B3",
"6 c #96A8BA",
"7 c #97A8BB",
"8 c #97A9BB",
"9 c #97A9BC",
"0 c #98A9BC",
"q c #98AABC",
"w c #99AABD",
"e c #9AABBE",
"r c #9DAEC1",
"t c #A6B7CA",
"y c #A6B8CA",
"u c #A7B8CB",
"i c #A7B9CB",
"p c #A8B9CC",
"a c #A8B9CD",
"s c #A9BACD",
"d c #AABBCE",
"f c #B0C1D4",
"g c #B1C2D5",
"h c #B2C3D6",
"j c #B3C4D8",
"k c #B4C5D8",
"l c #B6C6DA",
"z c #B6C7DA",
"x c #B6C7DB",
"c c #B7C7DB",
"v c #B7C8DD",
"b c #B8C9DC",
"n c #B9CADD",
"m c #B9CADE",
"M c white",
/* pixels */
"MMMMMMMMMMMMMMMMMMMMMMMMMMMMMMMMMMMMMMMMMMMMMMMMMMMMMMMMMMMMMMMM",
"MMMMMMMMMMMMMMMMMMMMMMMMMMMMMMMMMMMMMMMMMMMMMMMMMMMMMMMMMMMMMMMM",
"MMMMMMMMMMMMMMMMMMMMMMMMMMMMMMMMMMMMMMMMMMMMMMMMMMMMMMMMMMMMMMMM",
"MMM5@%%%%%%%%%-*%%%&%%%%%%%%%%%&%%%%%%-%%%%%%%%%%%%%%%%%%%%+5MMM",
"MMM@vjjjjjjjjv>ackkkkchhdkkkkkkkkkkkkw9kkkkjkckkjjjjjjjjjjjv@MMM",
"MMM%jffffffffk>thhfffdhfffffffffffffj9wffffffdfffffffffffffj%MMM",
"MMM%jffffffffk>thdffffffffffffffffffdwwfffffffakfffffffffffj%MMM",
"MMM%jffffffffk>thffffffffffffffffffff6wjffffffkffffffffffffj%MMM",
"MMM%jffffffffk>thhffffffdhhkhkkdffffxw7fdfffakfkfffffffffffj%MMM",
"MMM%jffffffffk>thhffffffkkddddhhffffd6wfkfffkfkafffffffffffj%MMM",
"MMM%jffffffffk>tfdffffffhdkhkhdkffffjwwxffffakajfffffffffffj%MMM",
"MMM%jffffffffk>thfffffffhkdhkdhkfffff77dffffkfjffffffffffffj%MMM",
"MMM%jffffffffk>tdhhfkdhdddkhdhddffdjfwwjffdjffdjfffffffffffk%MMM",
"MMM%vjjkkkkjkb2acfchckchnkkkkhbckkkjkwwxkkjjkkjfkkkkjjjjkkkk%MMM",
"MMM-::::2::::2o-:::::::::33:::::3:::3#%:3:::3:::32::::::3:3>-MMM",
"MMM%attttytttyyytuuuuuuup44duuupuuttuuuuuuutuutur-ayttttttya%MMM",
"MMM%kfffffjfffffjffjffjfk88kdkhhfhfhfhfhfhffjfjfu:jffffkfffv%MMM",
"MMM%kfffffffffffffffffffh87hdhkdfffffffffffffffft>kffffffffk%MMM",
"MMM%kfffffffffffffffffffh88hkkhhfffffffffffffffjt>kffffffffk%MMM",
"MMM%kfffffffffffffffffffh88hhddkffffffffffffffffy:kffffffffk%MMM",
"MMM%kfffffffffffffffffffh68hfffffffffffffffffffft>kffffffffj%MMM",
"MMM%jfffffffffffffffffffj86hfffffffffffffffffffjt>kffffffffj%MMM",
"MMM%jfffffffffffffffffffh66hfffffffffffffffffffft>jffffffffj%MMM",
"MMM%jfffffffffffffffffffh66hfffffffffffffffffffft>kffffffffj%MMM",
"MMM%kjffjfjffkfjkfjffkffz88khhhhhkffkhfkffjffkfja2kfjfjffjfv%MMM",
"MMM-9898888888ww888866888,,8666668688888668888884$w88888888w*MMM",
"MMM*w8889w888e$4886666888888666668888,,8888868888e9986986w8w-MMM",
"MMM%kjfffffffc>akfjfjkffhhjkhhhhfffkc88kjffkfffkfjkffffjfffk%MMM",
"MMM%jffffffffk>tffffffffffffffffkshsk88jfffffffffffffffffffj%MMM",
"MMM%jffffffffk>yffffffffffffffffhhhhf86hfffffffffffffffffffj%MMM",
"MMM%jffffffffk>yjfffffffffffffffhsjhh66hfffffffffffffffffffj%MMM",
"MMM%jffffffffk>yffffffffffffffffhhshh86hffffffffffffffffffff%MMM",
"MMM%kffffffffk>tffffffffffffffffhshsc88hfffffffffffffffffffk%MMM",
"MMM%kfffffffff>tffffffffffffffffhkhkh68hffffffffffffffffffff%MMM",
"MMM%jffffffffk;tkfffffffffffffffhhhsk88fdkfkfdkfkpffffkpfffk%MMM",
"MMM%xfjdfkfffk;tkffkffhdffkfffffhshhk88kffkpkffkffkffkfffkfc%MMM",
"MMM%uuttatttta-ruuttttttatuttttyuuupd44upptttyupppppttptyyya%MMM",
"MMM->3::3>:::3333:::3>>:23o->3:::::::33::,:::::,-+,,:::,::2:-MMM",
"MMM%xkkkkjjjkkkkkkfkkkkkkb:akkkkhkkkkkhkkkkkfkkcp:ckhkkkjkkk%MMM",
"MMM%jffffffffffffffffffffk>tffffhdhkdhhdffffffffp>kffffffffj%MMM",
"MMM%jffffffffffffffffffffk>tffffhhdkfffffffffffft>kffffffffj%MMM",
"MMM%jffffffffffffffffffffk>tffffdkdhfffffffffffft2kffffffffj%MMM",
"MMM%jffffffffffffffffffffk>yffffkdkhfffffffffffkt>kffffffffj%MMM",
"MMM%jffffffffffffffffffffk>ykfffhhkdfffffffffffft>kffffffffj%MMM",
"MMM%jffffffffffffffffffffk,ykfffdkhhdhfffffffffkt>kffffffffj%MMM",
"MMM%jffffffffffffffffffffk>yffffdhhdhhfffffffffft>kffffffffj%MMM",
"MMM%kffffffffffffffffffffk>pffffkdhhdhdfffffffffy>kffffffffk%MMM",
"MMM%bkkkbkkkbkkbkkckkckkkb:acxkkccccccccckckkckca2bkvkkkkkkb%MMM",
"MMM-oOOO+O++oO.O++O++O+OO+$+++O+OOOOoo.+++++++O++#OOOOO++O+O3MMM",
"MMM%bkkkkkckkb3akkkkkkvkkkkkxkkkkckkcewckkkkkkkkkbkkbkkkkkkb%MMM",
"MMM%jffffffffk>tjffffffffffffffffffffwwffffffffffffffffffffk%MMM",
"MMM%jffffffffj>tfffffffffffffffffffffw8jfffffffffffffffffffk%MMM",
"MMM%jffffffffk>tfffffffffffffffffffffw8ffffffffffffffffffffk%MMM",
"MMM%jffffffffk>tfffffffffffffffffffff8wffffffffffffffffffffk%MMM",
"MMM%jffffffffk>tjfffffffffffffffffffj8wffffffffffffffffffffk%MMM",
"MMM%jffffffffk>tfffffffffffffffffffff88jfffffffffffffffffffd%MMM",
"MMM%jffffffffk>tffffffffffffffffffffkw6dffffffffffffffffffjx%MMM",
"MMM%jffffffffk>tfffffffffffffffffffffwwkffffffffffffffffffdj%MMM",
"MMM%jffffffffk>tffffffffffffffaffffffwwffffffffffffffffffffj%MMM",
"MMM@vjjjkjjjjb>akjjjkkkjjkkkkkjjkkhkxwwxjjjjjjjjjjjjjjjjkkkvOMMM",
"MMM5+*%%%%%%%%-%%%%%%%%%&%%%%%%%%%%%%-&%%%%%%%%%%%%%%%%%%%&+5MMM",
"MMMMMMMMMMMMMMMMMMMMMMMMMMMMMMMMMMMMMMMMMMMMMMMMMMMMMMMMMMMMMMMM",
"MMMMMMMMMMMMMMMMMMMMMMMMMMMMMMMMMMMMMMMMMMMMMMMMMMMMMMMMMMMMMMMM",
"MMMMMMMMMMMMMMMMMMMMMMMMMMMMMMMMMMMMMMMMMMMMMMMMMMMMMMMMMMMMMMMM"
};
